# xmcd CD database file
#
# Track frame offsets:
#	150
#	65983
#	96607
#	132292
#	156794
#
# Disc length: 2583 seconds
#
# Revision: 0
# Processed by: cddbd v1.5PL3 Copyright (c) Steve Scherf et al.
# Submitted via: CDex 1.51
#
DISCID=490a1505
DTITLE=Daniel Thouin - Mile End Waverly
DYEAR=2004
DGENRE=Jazz
TTITLE0=Why Now?
TTITLE1=Pulse
TTITLE2=D.T
TTITLE3=Hyperballad
TTITLE4=Half Dub 1
EXTD=YEAR: 2004
EXTT0=
EXTT1=
EXTT2=
EXTT3=
EXTT4=
PLAYORDER=
